<svg width="110" height="109" viewBox="0 0 110 109" fill="none" xmlns="http://www.w3.org/2000/svg">
<path d="M89.0625 13.625V95.375H20.9375V13.625H89.0625ZM89.0625 6.8125H20.9375C19.1307 6.8125 17.3979 7.53024 16.1203 8.80783C14.8427 10.0854 14.125 11.8182 14.125 13.625V95.375C14.125 97.1818 14.8427 98.9146 16.1203 100.192C17.3979 101.47 19.1307 102.188 20.9375 102.188H89.0625C90.8693 102.188 92.6021 101.47 93.8797 100.192C95.1573 98.9146 95.875 97.1818 95.875 95.375V13.625C95.875 11.8182 95.1573 10.0854 93.8797 8.80783C92.6021 7.53024 90.8693 6.8125 89.0625 6.8125Z" fill="white"/>
<path d="M31.1562 78.3438H37.9688V85.1562H31.1562V78.3438ZM72.0312 78.3438H78.8438V85.1562H72.0312V78.3438ZM31.1562 61.3125H37.9688V68.125H31.1562V61.3125ZM72.0312 61.3125H78.8438V68.125H72.0312V61.3125ZM31.1562 44.2812H37.9688V51.0938H31.1562V44.2812ZM51.5938 78.3438H58.4062V85.1562H51.5938V78.3438ZM51.5938 61.3125H58.4062V68.125H51.5938V61.3125ZM51.5938 44.2812H58.4062V51.0938H51.5938V44.2812ZM72.0312 44.2812H78.8438V51.0938H72.0312V44.2812ZM31.1562 23.8438H78.8438V34.0625H31.1562V23.8438Z" fill="white"/>
</svg>
