<svg width="44" height="45" viewBox="0 0 44 45" fill="none" xmlns="http://www.w3.org/2000/svg">
<path d="M42.6508 29.925L42.7141 29.7141C44.3459 25.0431 44.3459 19.9569 42.7141 15.2859L42.6508 15.075C41.1113 10.8309 38.3046 7.1625 34.6108 4.56667C30.9171 1.97083 26.5147 0.573002 22 0.5625C17.4839 0.566941 13.0788 1.96239 9.38385 4.55905C5.6889 7.1557 2.8835 10.8275 1.34924 15.075L1.28596 15.2859C-0.345808 19.9569 -0.345808 25.0431 1.28596 29.7141L1.34924 29.925C2.8835 34.1725 5.6889 37.8443 9.38385 40.441C13.0788 43.0376 17.4839 44.4331 22 44.4375C26.5161 44.4331 30.9213 43.0376 34.6162 40.441C38.3111 37.8443 41.1165 34.1725 42.6508 29.925ZM16.6211 30.9375H27.3789C26.298 34.2929 24.4573 37.3536 22 39.8812C19.5428 37.3536 17.702 34.2929 16.6211 30.9375ZM15.7352 27.5625C15.0885 24.2185 15.0885 20.7815 15.7352 17.4375H28.2649C28.586 19.1059 28.7485 20.801 28.75 22.5C28.7495 24.1991 28.587 25.8942 28.2649 27.5625H15.7352ZM3.43752 22.5C3.44111 20.7889 3.67525 19.0861 4.13362 17.4375H12.2969C11.7344 20.7891 11.7344 24.2109 12.2969 27.5625H4.13362C3.67525 25.9139 3.44111 24.2111 3.43752 22.5ZM27.3789 14.0625H16.6211C17.702 10.7071 19.5428 7.64641 22 5.11875C24.4573 7.64641 26.298 10.7071 27.3789 14.0625ZM31.7031 17.4375H39.8664C40.7948 20.7487 40.7948 24.2513 39.8664 27.5625H31.7031C32.2656 24.2109 32.2656 20.7891 31.7031 17.4375ZM38.5375 14.0625H30.9438C29.9288 10.5089 28.1989 7.19987 25.8602 4.33828C28.5607 4.92137 31.0983 6.09592 33.2904 7.77738C35.4825 9.45883 37.2745 11.6054 38.5375 14.0625ZM18.1399 4.33828C15.8011 7.19987 14.0712 10.5089 13.0563 14.0625H5.46252C6.72552 11.6054 8.51756 9.45883 10.7097 7.77738C12.9018 6.09592 15.4394 4.92137 18.1399 4.33828ZM5.46252 30.9375H13.0563C14.0712 34.4911 15.8011 37.8001 18.1399 40.6617C15.4377 40.0828 12.8982 38.9099 10.7056 37.228C8.51287 35.5461 6.72191 33.3973 5.46252 30.9375ZM25.8602 40.6617C28.1989 37.8001 29.9288 34.4911 30.9438 30.9375H38.5375C37.2781 33.3973 35.4872 35.5461 33.2945 37.228C31.1018 38.9099 28.5623 40.0828 25.8602 40.6617Z" fill="#040404"/>
</svg>
