<svg width="50" height="50" viewBox="0 0 50 50" fill="none" xmlns="http://www.w3.org/2000/svg">
<path d="M41.8056 6.44453V37.0001C41.8056 37.4053 41.6446 37.7939 41.3581 38.0804C41.0716 38.3669 40.683 38.5279 40.2778 38.5279H14.3056C13.4952 38.5279 12.718 38.8498 12.1449 39.4228C11.5719 39.9958 11.25 40.773 11.25 41.5834H37.2222C37.6274 41.5834 38.016 41.7444 38.3025 42.0309C38.589 42.3174 38.75 42.706 38.75 43.1112C38.75 43.5164 38.589 43.905 38.3025 44.1915C38.016 44.478 37.6274 44.639 37.2222 44.639H9.72222C9.31703 44.639 8.92843 44.478 8.64192 44.1915C8.3554 43.905 8.19444 43.5164 8.19444 43.1112V11.0279C8.19948 9.40864 8.84494 7.85718 9.98991 6.71222C11.1349 5.56725 12.6863 4.92178 14.3056 4.91675H40.2778C40.683 4.91675 41.0716 5.07771 41.3581 5.36422C41.6446 5.65074 41.8056 6.03933 41.8056 6.44453Z" fill="#DFA03F"/>
</svg>
