<svg width="140" height="25" viewBox="0 0 140 25" fill="none" xmlns="http://www.w3.org/2000/svg">
<path d="M5.825 22.5L7.45 15.475L2 10.75L9.2 10.125L12 3.5L14.8 10.125L22 10.75L16.55 15.475L18.175 22.5L12 18.775L5.825 22.5Z" fill="#02980E"/>
<path d="M34.825 22.5L36.45 15.475L31 10.75L38.2 10.125L41 3.5L43.8 10.125L51 10.75L45.55 15.475L47.175 22.5L41 18.775L34.825 22.5Z" fill="#02980E"/>
<path d="M63.825 22.5L65.45 15.475L60 10.75L67.2 10.125L70 3.5L72.8 10.125L80 10.75L74.55 15.475L76.175 22.5L70 18.775L63.825 22.5Z" fill="#02980E"/>
<path d="M92.825 22.5L94.45 15.475L89 10.75L96.2 10.125L99 3.5L101.8 10.125L109 10.75L103.55 15.475L105.175 22.5L99 18.775L92.825 22.5Z" fill="#02980E"/>
<path d="M121.825 22.5L123.45 15.475L118 10.75L125.2 10.125L128 3.5L130.8 10.125L138 10.75L132.55 15.475L134.175 22.5L128 18.775L121.825 22.5Z" fill="#919891"/>
</svg>
