<svg width="56" height="56" viewBox="0 0 56 56" fill="none" xmlns="http://www.w3.org/2000/svg">
<path d="M28 39.6667C24.7722 39.6667 22.0212 38.5288 19.747 36.253C17.4712 33.9788 16.3333 31.2278 16.3333 28C16.3333 24.7722 17.4712 22.0204 19.747 19.7447C22.0212 17.4704 24.7722 16.3333 28 16.3333C31.2278 16.3333 33.9796 17.4704 36.2553 19.7447C38.5296 22.0204 39.6667 24.7722 39.6667 28C39.6667 31.2278 38.5296 33.9788 36.2553 36.253C33.9796 38.5288 31.2278 39.6667 28 39.6667ZM11.6667 49C10.3833 49 9.28433 48.5434 8.36967 47.6303C7.45656 46.7157 7 45.6167 7 44.3333V35H11.6667V44.3333H21V49H11.6667ZM35 49V44.3333H44.3333V35H49V44.3333C49 45.6167 48.5434 46.7157 47.6303 47.6303C46.7157 48.5434 45.6167 49 44.3333 49H35ZM7 21V11.6667C7 10.3833 7.45656 9.28433 8.36967 8.36967C9.28433 7.45656 10.3833 7 11.6667 7H21V11.6667H11.6667V21H7ZM44.3333 21V11.6667H35V7H44.3333C45.6167 7 46.7157 7.45656 47.6303 8.36967C48.5434 9.28433 49 10.3833 49 11.6667V21H44.3333Z" fill="#1D6F7A"/>
</svg>
